<svg id="a6ac60df-21e0-4668-af51-59c44993f9d3" data-name="Layer 1" xmlns="http://www.w3.org/2000/svg" viewBox="0 0 1461.27539 639.72314"><path d="M232.20553,501.08423v-136.727q0-13.48536-.749-27.15821-.75587-13.66918-2.24805-27.15771H304.1274l4.1211,30.3418h-4.1211a68.26542,68.26542,0,0,1,26.59668-25.65967q16.856-9.17431,37.834-9.17725,33.71337,0,50.19531,20.415,16.4795,20.42139,16.48242,63.11914V501.08423h-77.916V392.07739q0-15.356-5.05664-21.352-5.05665-5.98755-13.67286-5.99365-12.73827,0-20.60253,8.42871-7.86622,8.428-7.86622,22.28809V501.08423Z" transform="translate(-229.20846 -220.13843)"/><path d="M570.46236,505.57935q-32.96777,0-57.31347-12.17432-24.3545-12.16847-37.64649-34.6499-13.30077-22.47584-13.29785-53.19239,0-31.08837,13.29785-53.37988,13.292-22.28247,37.64649-34.4624,24.3457-12.16846,57.31347-12.17432,32.95752,0,57.125,12.17432a89.42315,89.42315,0,0,1,37.46,34.4624q13.292,22.29126,13.29785,53.37988,0,30.71925-13.29785,53.19239a88.99115,88.99115,0,0,1-37.46,34.6499Q603.42623,505.57348,570.46236,505.57935Zm0-57.313q13.48536,0,21.35157-9.73926,7.86621-9.73682,7.86621-32.96436,0-23.22216-7.86621-32.96435-7.86621-9.73681-21.35157-9.73975-13.86327,0-21.72656,9.73975-7.86621,9.74487-7.86621,32.96435,0,23.23023,7.86621,32.96436Q556.602,448.272,570.46236,448.26636Z" transform="translate(-229.20846 -220.13843)"/><path d="M706.43893,501.08423v-136.727q0-13.48536-.749-27.15821-.75585-13.66918-2.248-27.15771H778.3608l4.1211,30.3418h-4.1211a66.16954,66.16954,0,0,1,24.53614-25.28516q15.917-9.55224,37.27246-9.55176,20.228,0,35.02441,9.55176,14.79345,9.55224,21.91406,30.15527h-6.36816a71.4314,71.4314,0,0,1,27.53223-29.21875,75.70653,75.70653,0,0,1,39.1455-10.48828q33.33546,0,49.44629,20.228,16.10157,20.228,16.10742,63.30615V501.08423h-78.29V391.32788q0-14.60889-4.12011-20.60254-4.12647-5.98755-12.73633-5.99365-11.61621,0-17.98047,8.61572-6.375,8.62134-6.36816,24.34863V501.08423H825.56V391.32788q0-14.60889-4.12012-20.60254-4.12645-5.98755-12.73632-5.99365-11.61621,0-17.98047,8.61572-6.375,8.62134-6.36817,24.34863V501.08423Z" transform="translate(-229.20846 -220.13843)"/><path d="M1056.68014,288.3147V220.13843h80.16308V288.3147Zm1.124,212.76953v-191.043h77.916v191.043Z" transform="translate(-229.20846 -220.13843)"/><path d="M1273.19088,505.57935q-32.58984,0-57.31348-11.98682-24.72363-11.98463-38.3955-34.46289-13.67871-22.47583-13.67286-53.5669,0-31.4663,13.67286-53.75439,13.66992-22.28247,38.3955-34.27539,24.72365-11.98389,57.31348-11.98682a153.79616,153.79616,0,0,1,39.14453,5.05664q19.28907,5.05739,30.9043,14.04737L1322.26217,377.468a62.828,62.828,0,0,0-19.291-9.92676,69.06318,69.06318,0,0,0-21.165-3.55859q-17.981,0-27.90722,10.48877-9.93018,10.49121-9.92676,31.0913,0,20.60523,9.92676,31.09131,9.92139,10.49121,27.90722,10.48877a66.531,66.531,0,0,0,20.97754-3.74609,70.962,70.962,0,0,0,19.47852-9.73975l20.97754,52.81787q-11.99268,8.99049-31.0918,14.04737A151.60158,151.60158,0,0,1,1273.19088,505.57935Z" transform="translate(-229.20846 -220.13843)"/><path d="M1442.12838,505.57935q-24.3545,0-43.26562-11.98682-18.91993-11.98463-29.59278-34.46289-10.67578-22.47583-10.67578-53.5669,0-31.08837,10.67578-53.56689,10.67578-22.47584,29.59278-34.46289,18.91113-11.98389,43.26562-11.98682a79.468,79.468,0,0,1,38.77051,9.73926q17.7876,9.74561,23.03808,25.47217h-3.74609l4.49512-30.71631h74.91894q-1.50146,13.48534-2.248,27.15771-.7544,13.67873-.749,27.15821v136.727h-77.166l-.75-28.46924h4.49511q-5.61766,14.60962-23.03711,23.78662A80.34355,80.34355,0,0,1,1442.12838,505.57935Zm26.22168-57.313q13.85449,0,22.66309-9.73926,8.79785-9.73682,8.80273-32.96436,0-23.22216-8.80273-32.96435-8.80665-9.73681-22.66309-9.73975-13.86328,0-22.66309,9.73975-8.80516,9.74487-8.80273,32.96435,0,23.23023,8.61523,32.96436Q1454.11276,448.272,1468.35006,448.26636Z" transform="translate(-229.20846 -220.13843)"/><path d="M1612.56783,501.08423V225.38257h77.916V501.08423Z" transform="translate(-229.20846 -220.13843)"/><path d="M232.20553,855.36646V579.66528h77.916V855.36646Z" transform="translate(-229.20846 -220.13843)"/><path d="M421.3735,859.86157q-24.35449,0-43.26563-11.9873Q359.188,835.89038,348.5151,813.41235,337.83932,790.9358,337.83932,759.845q0-31.08839,10.67578-53.56738,10.67578-22.4751,29.59277-34.46289,18.91113-11.98389,43.26563-11.98633a79.468,79.468,0,0,1,38.77051,9.73926q17.78759,9.74561,23.03808,25.47265H479.436l4.49511-30.71679h74.919q-1.50147,13.48535-2.24805,27.1582-.7544,13.67871-.749,27.1582V855.36646H478.687l-.75-28.46875h4.49512q-5.61768,14.60888-23.03711,23.78613A80.34933,80.34933,0,0,1,421.3735,859.86157Zm26.22168-57.3125q13.85449,0,22.66308-9.74023,8.79786-9.73536,8.80274-32.96387,0-23.22216-8.80274-32.96484-8.80663-9.73536-22.66308-9.73926-13.86329,0-22.66309,9.73926-8.80518,9.74561-8.80273,32.96484,0,23.231,8.61523,32.96387Q433.35788,802.55445,447.59518,802.54907Z" transform="translate(-229.20846 -220.13843)"/><path d="M725.91744,859.86157a77.656,77.656,0,0,1-38.208-9.73926q-17.61183-9.73681-23.22461-25.47265h4.12011v30.7168H591.813V579.66528h77.916v113.127h-4.87012q6.36474-14.60889,23.59961-23.78614a78.45015,78.45015,0,0,1,37.459-9.17773q24.3457,0,43.26563,12.17383,18.91113,12.17724,29.78027,34.83789,10.86036,22.66845,10.86328,53.7539,0,31.09717-10.86328,53.37989-10.86913,22.29053-29.78027,34.08789Q750.26315,859.86109,725.91744,859.86157Zm-25.84668-57.3125a29.862,29.862,0,0,0,22.47559-9.36523q8.98974-9.35889,8.99023-32.58985,0-23.22216-8.99023-33.33886a28.82355,28.82355,0,0,0-22.47559-10.11426q-13.86327,0-22.66308,9.73926-8.80518,9.74561-8.80274,32.96484,0,23.231,8.80274,32.96387Q686.20553,802.55445,700.07076,802.54907Z" transform="translate(-229.20846 -220.13843)"/><path d="M913.96334,859.86157q-27.72655,0-50.00879-5.24414-22.29053-5.24121-38.02148-14.23437l17.98047-50.19629A176.74871,176.74871,0,0,0,877.4399,802.9231a137.6307,137.6307,0,0,0,36.89746,5.24414q11.98389,0,16.85743-3.1836,4.86327-3.17871,4.86914-8.05371a7.348,7.348,0,0,0-3.1836-6.36816,19.789,19.789,0,0,0-8.80273-2.99707l-41.95508-7.11719q-24.35449-4.11768-37.834-17.793-13.48536-13.66992-13.48535-35.77441,0-20.228,11.05078-35.21192,11.04492-14.97655,31.46582-23.41211,20.4126-8.42724,48.13476-8.42773a189.74662,189.74662,0,0,1,42.5166,4.68262,108.67819,108.67819,0,0,1,35.77442,14.79589l-19.10449,48.69727a114.60973,114.60973,0,0,0-27.53321-11.7998q-15.92577-4.67871-29.03027-4.68262-13.86328,0-19.292,3.18457Q899.351,717.8938,899.354,722.76a7.44312,7.44312,0,0,0,2.80957,5.80664q2.80956,2.44043,8.80273,3.55859l41.95508,6.74219q24.72216,3.74854,38.208,17.04395,13.48534,13.30077,13.48535,36.14843,0,21.7295-11.42481,36.71-11.43164,14.98682-31.84082,23.03808Q940.92771,859.85865,913.96334,859.86157Z" transform="translate(-229.20846 -220.13843)"/></svg>